<?xml version="1.0" standalone="no"?>
<!DOCTYPE svg PUBLIC "-//W3C//DTD SVG 20010904//EN"
 "http://www.w3.org/TR/2001/REC-SVG-20010904/DTD/svg10.dtd">
<svg version="1.0" xmlns="http://www.w3.org/2000/svg"
 width="500.000000pt" height="500.000000pt" viewBox="0 0 500.000000 500.000000"
 preserveAspectRatio="xMidYMid meet">
<metadata>
Created by potrace 1.14, written by Peter Selinger 2001-2017
</metadata>
<g transform="translate(0.000000,500.000000) scale(0.100000,-0.100000)"
fill="#000000" stroke="none">
<path d="M2417 4704 c-1 -1 -46 -4 -100 -8 -55 -3 -104 -9 -109 -12 -6 -4 -27
-8 -47 -11 -20 -2 -70 -11 -111 -20 -41 -9 -79 -17 -85 -19 -100 -20 -333
-102 -450 -158 -400 -190 -807 -566 -1002 -926 -148 -274 -232 -558 -241 -817
-3 -97 -1 -143 6 -143 6 0 16 26 22 58 17 84 18 84 19 0 1 -97 9 -122 27 -82
12 29 12 28 14 -21 1 -27 2 -54 1 -58 -1 -5 3 -6 9 -2 5 3 10 21 10 39 0 19 7
49 15 69 8 19 17 50 20 68 3 19 8 41 10 49 2 8 6 33 10 55 3 22 13 74 22 115
15 73 31 100 44 78 4 -6 10 -2 14 11 11 36 25 23 24 -21 -3 -121 7 -127 41
-25 14 39 29 75 33 78 4 3 28 48 53 100 72 146 114 214 243 385 103 138 305
370 238 274 -60 -85 -53 -107 14 -47 20 17 56 48 79 66 23 19 48 40 54 46 23
22 134 104 221 163 234 158 502 260 780 297 22 3 54 8 71 10 73 12 345 6 439
-10 339 -55 616 -173 880 -373 78 -59 258 -239 322 -322 161 -208 284 -463
342 -710 35 -152 44 -232 45 -405 1 -196 -5 -257 -40 -411 -110 -491 -397
-910 -810 -1183 -137 -91 -359 -199 -464 -226 -8 -2 -48 -13 -88 -24 -155 -45
-315 -64 -527 -65 -110 -1 -220 2 -245 6 -25 4 -65 10 -90 14 -100 14 -279 66
-407 118 -153 62 -166 60 -23 -4 98 -44 245 -95 315 -109 258 -54 241 -52 450
-56 99 -2 209 0 245 6 36 5 81 11 100 13 59 8 153 27 185 36 411 123 641 256
916 530 64 63 110 104 103 91 -21 -39 -143 -167 -229 -239 -44 -37 -82 -69
-85 -72 -3 -4 -34 -27 -70 -52 -330 -232 -712 -336 -1225 -331 -247 2 -555 86
-812 221 -41 22 -60 40 -27 28 9 -3 12 -2 9 5 -4 5 -15 7 -24 4 -10 -3 -29 0
-42 7 -25 13 -162 104 -189 124 -93 73 -174 146 -268 243 -62 64 -118 115
-124 113 -6 -2 -8 3 -5 11 6 17 -26 60 -48 63 -9 1 -14 -1 -10 -4 4 -4 12 -7
17 -7 6 0 13 -6 16 -14 3 -9 0 -11 -9 -6 -8 5 -11 4 -6 -1 5 -5 14 -9 20 -9 7
0 12 -9 12 -20 0 -11 5 -20 12 -20 6 0 15 -4 20 -9 4 -4 -1 -7 -11 -5 -18 4
-134 160 -170 229 -7 14 -31 59 -53 100 -22 41 -55 114 -74 162 -19 49 -37 88
-40 88 -20 0 137 -342 194 -423 10 -16 17 -30 14 -33 -2 -3 -17 17 -33 43 -43
71 -53 88 -111 203 -51 102 -68 116 -38 30 18 -50 18 -53 5 -45 -6 3 -7 -1 -4
-9 3 -9 10 -14 14 -11 4 3 11 -2 14 -11 3 -8 2 -13 -3 -10 -5 4 -7 -3 -4 -14
3 -11 9 -23 14 -26 5 -3 6 3 3 13 -5 16 -4 15 11 -2 9 -11 11 -21 5 -23 -9 -3
14 -62 26 -62 2 0 0 9 -6 19 -20 38 -9 35 15 -4 27 -44 31 -60 13 -49 -7 4 -8
3 -4 -5 4 -6 12 -8 18 -5 8 5 9 1 4 -12 -4 -10 -4 -15 0 -11 8 8 34 -11 34
-25 0 -6 -8 -4 -17 3 -16 13 -17 12 -4 -3 7 -10 17 -16 21 -13 4 3 26 -23 48
-58 22 -34 68 -95 101 -135 34 -39 58 -72 54 -72 -11 1 -98 105 -153 182 -18
27 -35 48 -37 48 -10 0 41 -83 81 -131 25 -30 41 -56 35 -57 -5 -2 -6 -9 -3
-14 4 -7 2 -8 -5 -4 -6 4 -8 13 -5 19 4 7 4 9 -1 5 -8 -8 -15 -2 -66 62 -99
123 -231 348 -295 500 -13 30 -23 50 -24 44 -1 -49 197 -414 283 -520 8 -10
39 -48 68 -84 145 -181 413 -408 630 -534 149 -87 360 -172 527 -213 59 -15
111 -30 116 -34 13 -12 -191 39 -294 73 -91 29 -313 122 -336 140 -6 4 -33 20
-60 34 -190 100 -458 324 -600 501 -21 26 -41 50 -44 53 -3 3 -23 29 -44 57
-243 337 -376 683 -421 1101 -4 35 -9 61 -12 58 -6 -6 -5 -104 2 -151 68 -504
282 -938 629 -1280 217 -214 483 -389 736 -485 47 -18 94 -36 105 -40 60 -25
244 -72 354 -91 219 -38 630 -32 801 11 19 5 49 11 66 14 17 3 82 22 145 41
63 20 119 37 124 39 36 11 72 27 215 95 357 169 688 467 906 816 133 212 241
489 293 755 11 52 20 85 20 73 2 -47 -52 -273 -95 -403 -53 -155 -126 -315
-207 -447 -67 -110 -67 -124 0 -20 115 178 249 498 277 660 3 15 7 35 10 45 3
9 7 28 10 42 2 14 9 52 15 85 18 102 24 194 23 365 -1 152 -3 193 -17 305 -5
37 -8 51 -20 115 -3 14 -7 36 -10 50 -33 173 -180 550 -282 721 -198 332 -468
587 -798 752 -316 158 -614 250 -882 273 -59 5 -322 11 -326 8z m-747 -198 c0
-2 -7 -7 -16 -10 -8 -3 -12 -2 -9 4 6 10 25 14 25 6z m-115 -56 c-3 -5 -12
-10 -18 -10 -7 0 -6 4 3 10 19 12 23 12 15 0z m-35 -14 c0 -2 -7 -7 -16 -10
-8 -3 -12 -2 -9 4 6 10 25 14 25 6z m-60 -31 c0 -2 -18 -14 -40 -25 -22 -11
-40 -18 -40 -15 0 2 17 13 38 24 42 23 42 23 42 16z m-211 -131 c-52 -37 -114
-83 -139 -102 -25 -20 -38 -28 -30 -18 17 22 241 186 254 186 5 0 -34 -30 -85
-66z m91 -8 c0 -2 -8 -10 -17 -17 -16 -13 -17 -12 -4 4 13 16 21 21 21 13z
m-60 -40 c0 -2 -8 -10 -17 -17 -16 -13 -17 -12 -4 4 13 16 21 21 21 13z m-40
-30 c0 -2 -8 -10 -17 -17 -16 -13 -17 -12 -4 4 13 16 21 21 21 13z m-100 -83
c-19 -15 -84 -74 -143 -132 -59 -58 -111 -108 -115 -111 -26 -19 127 137 187
190 40 36 78 70 85 76 6 7 13 10 16 7 2 -2 -11 -16 -30 -30z m-80 25 c0 -2
-48 -50 -107 -108 -60 -58 -92 -87 -73 -65 52 59 180 182 180 173z m-450 -650
c-17 -35 -42 -84 -56 -111 -14 -26 -22 -52 -18 -59 5 -7 3 -8 -6 -3 -10 6 -12
4 -7 -9 4 -11 3 -15 -4 -10 -8 4 -9 -1 -4 -17 5 -20 4 -21 -5 -9 -10 12 -11
11 -7 -8 3 -13 1 -20 -5 -16 -6 4 -8 -2 -3 -17 5 -19 4 -21 -4 -9 -9 12 -11
13 -11 1 0 -8 -2 -12 -5 -9 -12 11 144 338 161 338 2 0 -9 -28 -26 -62z m-130
-299 c0 8 2 12 5 9 3 -3 1 -16 -4 -29 -5 -13 -10 -19 -10 -12 -1 6 -4 20 -7
30 -5 15 -4 15 5 3 9 -12 11 -13 11 -1z m-29 -46 c-12 -20 -14 -14 -5 12 4 9
9 14 11 11 3 -2 0 -13 -6 -23z m-2 -73 c0 -10 -3 -8 -9 5 -12 27 -12 43 0 25
5 -8 9 -22 9 -30z m44 -75 c-3 -9 -8 -14 -10 -11 -3 3 -2 9 2 15 9 16 15 13 8
-4z m-81 -72 c-3 -16 -7 -22 -10 -15 -4 13 4 42 11 42 2 0 2 -12 -1 -27z m-23
-122 c-7 -44 -14 -79 -17 -76 -3 2 1 41 8 85 7 44 15 79 17 76 2 -2 -1 -40 -8
-85z m-28 -154 c-10 -9 -11 -8 -5 6 3 10 9 15 12 12 3 -3 0 -11 -7 -18z m4366
-434 c-3 -10 -5 -4 -5 12 0 17 2 24 5 18 2 -7 2 -21 0 -30z m-3859 -930 c58
-88 49 -90 -11 -2 -27 38 -44 69 -40 68 4 0 27 -30 51 -66z m158 -139 c-3 -7
0 -11 7 -8 16 6 71 -51 63 -64 -4 -6 -1 -14 5 -18 8 -4 9 -3 5 4 -14 23 6 11
47 -27 91 -85 136 -121 262 -208 44 -31 71 -53 60 -49 -20 6 -20 6 -1 -9 23
-18 40 -20 30 -3 -4 7 -3 8 5 4 6 -4 8 -12 5 -18 -5 -8 -1 -9 10 -5 10 4 27 0
39 -9 17 -13 18 -15 4 -10 -11 3 -16 2 -12 -5 4 -5 15 -9 24 -7 25 4 122 -43
114 -55 -4 -6 0 -8 10 -4 10 3 17 2 17 -3 0 -5 7 -6 17 -3 10 4 14 2 10 -4 -4
-6 0 -14 9 -17 8 -3 13 -2 10 3 -4 5 10 4 29 -2 24 -7 31 -13 23 -19 -9 -5 -9
-8 -1 -8 6 0 20 -3 30 -6 15 -5 15 -4 3 5 -11 8 -11 11 -2 11 7 0 15 -7 18
-15 4 -8 10 -15 16 -15 5 0 6 5 2 11 -4 7 3 6 17 -2 13 -7 30 -12 38 -10 7 1
10 -2 6 -9 -5 -7 2 -9 21 -4 18 5 25 3 21 -3 -4 -6 0 -14 9 -17 8 -3 13 -2 9
3 -8 13 20 7 39 -8 9 -7 22 -11 30 -8 7 3 19 0 26 -6 10 -9 11 -9 5 3 -8 13
-7 13 8 1 10 -8 20 -11 24 -8 3 4 12 2 19 -4 8 -6 20 -9 29 -6 8 4 17 1 21 -5
4 -7 9 -6 15 3 7 11 9 11 9 1 0 -9 10 -12 29 -9 17 3 31 1 33 -5 2 -5 65 -10
146 -11 78 -1 142 -6 142 -11 0 -8 -296 -2 -380 9 -151 19 -372 87 -535 164
-89 42 -282 153 -295 170 -3 3 -41 33 -85 65 -97 72 -297 266 -291 283 3 6 -3
17 -12 25 -15 12 -16 11 -3 -4 22 -29 2 -20 -24 9 -16 20 -20 30 -12 36 15 9
90 -71 83 -89z m-42 -15 c12 -14 2 -5 -21 20 -24 25 -43 50 -43 55 0 5 10 -4
22 -20 12 -16 31 -41 42 -55z m101 -109 c27 -27 47 -50 44 -50 -3 0 -27 23
-54 50 -27 28 -47 50 -44 50 3 0 27 -22 54 -50z m-32 -15 c31 -30 53 -56 49
-58 -4 -1 -33 23 -64 55 -32 32 -53 58 -49 58 5 0 34 -25 64 -55z m105 -99
c17 -19 32 -32 35 -30 3 3 14 -6 25 -20 11 -15 25 -26 30 -26 6 0 19 -11 30
-25 11 -13 22 -21 26 -18 3 3 6 1 6 -6 0 -7 5 -9 10 -6 6 3 13 -1 16 -9 3 -9
10 -16 15 -16 6 0 19 -9 31 -20 12 -10 25 -17 29 -14 4 2 13 -5 19 -16 6 -11
15 -18 20 -15 4 3 10 1 12 -4 1 -5 10 -11 18 -13 8 -2 17 -6 20 -9 13 -15 166
-90 260 -127 121 -47 207 -71 370 -106 63 -14 103 -25 88 -25 -47 -2 -249 47
-369 88 -120 42 -217 83 -317 137 -114 62 -258 158 -266 179 -3 9 -10 14 -15
10 -5 -3 -16 4 -24 15 -7 11 -16 17 -20 14 -3 -3 -15 8 -28 25 -12 17 -26 28
-31 25 -5 -3 -7 0 -6 7 2 7 -3 13 -11 14 -8 0 -16 6 -18 13 -8 23 15 12 45
-22z m2842 -39 c-121 -115 -323 -252 -495 -337 -124 -61 -210 -96 -200 -81 2
5 16 12 30 15 31 8 188 83 265 127 127 72 305 199 395 283 27 25 52 46 55 46
3 0 -20 -24 -50 -53z m-1353 -383 c-2 -3 -17 -7 -33 -10 -17 -2 -24 -1 -17 4
13 8 58 14 50 6z m573 -74 c-8 -5 -22 -9 -30 -9 -10 0 -8 3 5 9 27 12 43 12
25 0z m-888 -19 c4 -3 -13 -4 -37 -3 -25 2 -45 8 -45 12 0 9 70 1 82 -9z m798
-5 c0 -2 -7 -7 -16 -10 -8 -3 -12 -2 -9 4 6 10 25 14 25 6z m-40 -10 c0 -2 -7
-7 -16 -10 -8 -3 -12 -2 -9 4 6 10 25 14 25 6z m-913 -42 c-3 -3 -12 -4 -19
-1 -8 3 -5 6 6 6 11 1 17 -2 13 -5z m71 -11 c-10 -2 -28 -2 -40 0 -13 2 -5 4
17 4 22 1 32 -1 23 -4z"/>
<path d="M1050 1105 c13 -14 26 -25 28 -25 3 0 -5 11 -18 25 -13 14 -26 25
-28 25 -3 0 5 -11 18 -25z"/>
<path d="M1140 1015 c13 -14 26 -25 28 -25 3 0 -5 11 -18 25 -13 14 -26 25
-28 25 -3 0 5 -11 18 -25z"/>
<path d="M1180 987 c0 -2 15 -16 33 -33 l32 -29 -29 33 c-28 30 -36 37 -36 29z"/>
<path d="M1264 911 c20 -22 26 -25 26 -13 0 4 -10 13 -22 21 -23 14 -23 14 -4
-8z"/>
<path d="M1330 866 c0 -2 21 -19 48 -38 59 -43 72 -51 72 -44 0 3 -27 24 -60
46 -33 22 -60 39 -60 36z"/>
<path d="M1604 696 c11 -9 24 -16 30 -16 12 0 7 5 -24 19 -24 11 -24 11 -6 -3z"/>
<path d="M1657 669 c7 -7 15 -10 18 -7 3 3 -2 9 -12 12 -14 6 -15 5 -6 -5z"/>
<path d="M1223 3060 c-1 -25 1 -37 4 -27 4 15 15 19 41 16 4 -1 6 -5 5 -10 -2
-5 1 -9 5 -9 5 0 9 16 10 35 1 19 -3 35 -9 35 -6 0 -7 -5 -3 -11 7 -12 -12
-29 -33 -29 -6 0 -14 10 -16 23 -2 12 -4 2 -4 -23z"/>
<path d="M1325 3060 c0 -38 1 -40 30 -39 21 1 24 3 10 6 -11 3 -23 10 -26 15
-11 18 3 47 25 51 15 3 13 5 -9 6 -29 1 -30 -1 -30 -39z"/>
<path d="M1415 3091 c-3 -6 7 -9 21 -8 32 2 43 -18 14 -26 -11 -3 -20 -1 -20
4 0 5 -4 9 -9 9 -5 0 -8 -11 -8 -24 0 -22 1 -23 14 -10 14 13 18 13 37 -3 14
-12 17 -13 9 -2 -9 10 -9 19 -2 26 16 16 -1 43 -26 43 -13 0 -26 -4 -30 -9z"/>
<path d="M1510 3060 c0 -39 1 -40 33 -39 30 2 30 2 5 6 -16 2 -28 11 -28 18 0
8 6 12 14 9 8 -3 17 0 21 6 4 7 1 10 -10 8 -10 -2 -20 2 -22 9 -2 6 8 13 24
16 27 4 27 4 -4 6 -32 1 -33 0 -33 -39z"/>
<path d="M1746 3084 c-9 -8 -16 -19 -16 -24 0 -26 52 -51 64 -31 4 5 -3 7 -13
4 -27 -7 -47 30 -26 47 8 7 22 10 30 6 9 -3 13 -2 10 4 -9 15 -31 12 -49 -6z"/>
<path d="M1842 3088 c-30 -30 0 -75 43 -64 19 5 25 13 25 35 0 38 -41 56 -68
29z m56 -22 c5 -25 -12 -39 -37 -31 -24 7 -27 25 -9 43 17 17 42 11 46 -12z"/>
<path d="M1944 3059 c-1 -23 2 -35 7 -28 4 7 5 17 3 21 -10 16 9 8 22 -9 12
-17 13 -17 19 -1 4 9 13 14 21 11 10 -4 13 1 11 16 -3 21 -17 42 -17 25 0 -6
-6 -19 -14 -30 -14 -18 -15 -18 -25 9 -15 39 -26 33 -27 -14z"/>
<path d="M2062 3060 c0 -38 2 -40 32 -39 27 2 28 2 5 6 -21 3 -26 10 -26 33 0
23 5 30 26 33 23 3 22 4 -6 6 -31 1 -32 0 -31 -39z"/>
<path d="M2203 3085 c9 -8 13 -23 10 -34 -3 -10 0 -21 5 -25 6 -3 8 8 6 28 -2
26 1 36 14 39 9 3 2 5 -16 6 -30 1 -32 -1 -19 -14z"/>
<path d="M2284 3085 c-23 -17 -12 -20 15 -3 27 17 55 -6 40 -33 -12 -23 -45
-25 -53 -3 -4 9 -9 14 -13 11 -10 -11 18 -37 40 -37 18 0 46 25 47 42 0 11
-31 38 -44 38 -7 0 -21 -7 -32 -15z"/>
<path d="M2432 3075 c-1 -14 3 -25 8 -25 6 0 9 3 9 8 -6 33 33 47 45 16 9 -24
-14 -46 -41 -41 -13 2 -23 0 -23 -4 0 -15 48 -10 64 7 30 30 12 64 -34 64 -20
0 -26 -5 -28 -25z"/>
<path d="M2540 3060 c0 -39 1 -40 33 -39 30 2 30 2 5 6 -16 3 -28 11 -28 19 0
8 4 13 8 10 4 -2 14 0 22 5 12 8 11 9 -4 7 -28 -4 -31 20 -4 25 20 4 20 4 -4
6 -26 1 -28 -2 -28 -39z"/>
<path d="M2624 3089 c-3 -6 6 -22 22 -36 l29 -24 -28 4 c-19 3 -25 1 -19 -5
14 -14 47 -5 47 12 0 8 -11 20 -25 27 l-24 12 24 10 c24 9 24 10 3 10 -12 1
-25 -4 -29 -10z"/>
<path d="M2713 3060 c0 -25 2 -35 4 -22 2 12 2 32 0 45 -2 12 -4 2 -4 -23z"/>
<path d="M2772 3091 c-19 -11 -21 -43 -5 -59 17 -17 57 -12 59 8 1 10 -1 10
-3 2 -3 -7 -14 -12 -26 -10 -32 4 -31 53 1 52 12 0 22 3 22 8 0 10 -31 10 -48
-1z"/>
<path d="M2860 3058 c0 -49 5 -47 13 5 3 20 2 37 -4 37 -5 0 -9 -19 -9 -42z"/>
<path d="M2919 3065 c-6 -40 -4 -53 7 -43 3 3 4 23 2 44 l-3 39 -6 -40z"/>
<path d="M3010 3099 c0 -8 29 -84 30 -79 1 3 3 13 5 24 2 10 8 23 14 29 6 6
11 15 11 21 0 5 -7 1 -15 -10 -15 -19 -15 -19 -30 0 -8 11 -15 18 -15 15z"/>
<path d="M3102 3088 c-27 -27 -6 -68 34 -68 23 0 39 24 35 50 -5 29 -47 40
-69 18z m53 -28 c0 -18 -6 -26 -23 -28 -27 -4 -40 22 -22 44 19 22 45 13 45
-16z"/>
<path d="M3205 3070 c3 -38 16 -53 41 -48 20 4 36 49 23 69 -6 9 -9 2 -9 -23
0 -31 -4 -38 -20 -38 -20 0 -21 2 -24 39 0 11 -4 22 -7 26 -4 3 -5 -8 -4 -25z"/>
<path d="M3310 3058 c0 -31 3 -39 10 -28 8 13 13 13 31 2 19 -12 21 -12 16 0
-3 8 -1 21 3 29 12 18 -7 39 -36 39 -22 0 -24 -4 -24 -42z m54 23 c8 -12 -21
-34 -34 -26 -17 11 -11 35 9 35 11 0 22 -4 25 -9z"/>
<path d="M3454 3088 c-4 -7 2 -18 14 -26 28 -18 29 -36 2 -29 -11 3 -20 1 -20
-4 0 -15 48 -10 54 6 4 10 -3 20 -19 27 -31 14 -32 25 -2 31 22 4 22 4 0 6
-12 0 -25 -4 -29 -11z"/>
<path d="M3543 3060 c0 -25 2 -35 4 -22 2 12 2 32 0 45 -2 12 -4 2 -4 -23z"/>
<path d="M3587 3092 c6 -4 13 -23 16 -42 l4 -35 1 37 c2 25 7 38 20 41 9 3 1
5 -18 6 -19 0 -30 -3 -23 -7z"/>
<path d="M3669 3098 c-1 -2 -3 -13 -4 -24 -2 -18 3 -21 26 -20 15 0 25 3 22 6
-5 5 -10 6 -35 9 -17 1 2 18 27 24 15 4 13 5 -7 6 -16 0 -29 0 -29 -1z"/>
<path d="M3757 3093 c-13 -12 -7 -23 18 -35 28 -12 23 -32 -6 -25 -11 3 -17 1
-13 -4 8 -13 41 -11 50 3 4 6 -5 21 -22 36 l-29 24 27 -5 c15 -2 25 0 22 4 -6
11 -38 12 -47 2z"/>
<path d="M1648 3055 c2 -19 6 -35 8 -35 2 0 4 16 4 35 0 19 -4 35 -8 35 -4 0
-6 -16 -4 -35z"/>
<path d="M2880 3072 c0 -5 7 -15 15 -22 8 -7 15 -8 15 -2 0 5 -7 15 -15 22 -8
7 -15 8 -15 2z"/>
<path d="M1350 3060 c0 -5 5 -10 10 -10 6 0 10 5 10 10 0 6 -4 10 -10 10 -5 0
-10 -4 -10 -10z"/>
<path d="M2090 3060 c0 -5 5 -10 10 -10 6 0 10 5 10 10 0 6 -4 10 -10 10 -5 0
-10 -4 -10 -10z"/>
<path d="M3664 3029 c-3 -5 9 -9 25 -9 17 0 31 2 31 4 0 8 -51 13 -56 5z"/>
<path d="M1369 2723 c-15 -4 -15 -8 -4 -31 7 -15 17 -60 22 -100 11 -81 18
-65 -77 -182 -54 -67 -110 -145 -110 -152 0 -21 26 0 108 88 l90 95 17 -78
c28 -126 68 -160 129 -112 33 26 38 58 4 35 -28 -20 -54 -6 -63 34 -4 16 -11
30 -16 30 -6 0 -8 4 -5 9 4 5 0 12 -6 14 -10 4 -10 6 0 6 7 1 10 6 7 11 -4 6
-8 35 -10 65 -3 53 -3 54 61 127 35 40 63 80 61 88 -5 33 -36 19 -83 -39 l-49
-61 -16 66 c-17 69 -34 93 -60 87z m105 -399 c3 -8 2 -12 -4 -9 -6 3 -10 10
-10 16 0 14 7 11 14 -7z"/>
<path d="M2756 2676 c-21 -24 -65 -83 -97 -131 -33 -47 -59 -82 -59 -78 0 14
40 113 66 165 23 45 24 52 11 65 -8 9 -20 12 -26 8 -34 -20 -117 -239 -137
-360 -9 -54 -7 -77 7 -86 12 -7 44 0 35 8 -8 8 16 77 50 147 50 100 165 265
187 266 37 1 -96 -347 -139 -364 -21 -8 -40 2 -52 27 -9 18 -11 19 -11 4 -1
-25 43 -66 65 -62 11 2 22 4 26 4 19 2 70 69 97 125 43 91 60 148 63 208 4
107 -23 125 -86 54z"/>
<path d="M3192 2560 c-17 -55 -16 -62 8 -48 10 7 17 14 15 17 -3 2 2 12 11 22
9 10 14 25 11 34 -11 27 -32 16 -45 -25z"/>
<path d="M1794 2526 c-2 -6 -13 -36 -23 -66 -11 -30 -28 -61 -39 -68 -18 -11
-19 -10 -18 17 1 16 4 27 7 25 4 -2 9 7 11 21 5 24 -11 39 -28 27 -5 -4 -25
-27 -44 -52 -62 -80 -79 -81 -44 -2 14 31 28 62 30 68 3 6 -3 14 -14 16 -35
10 -94 -118 -76 -166 10 -27 35 -18 77 26 26 28 37 35 33 21 -4 -13 -1 -27 9
-37 15 -15 19 -15 46 1 16 10 29 21 29 26 0 5 7 3 16 -4 15 -12 19 -10 33 11
9 13 24 33 33 44 16 20 16 20 9 -16 -6 -27 -5 -43 6 -57 19 -28 38 -26 65 4
16 19 24 22 30 13 9 -13 15 -8 60 54 16 23 16 22 11 -19 -9 -71 36 -99 75 -46
l20 28 -5 -25 c-2 -14 2 -33 10 -44 13 -18 15 -18 55 3 22 11 47 29 54 39 28
38 37 34 22 -10 -8 -26 -34 -63 -63 -91 -77 -76 -104 -119 -92 -150 13 -33 45
-43 76 -23 27 18 52 68 85 168 22 68 27 74 130 156 14 11 22 23 19 26 -4 4
-29 -11 -57 -34 -28 -22 -54 -40 -57 -40 -2 0 4 15 15 33 48 77 5 91 -55 18
-22 -27 -52 -56 -67 -66 -27 -15 -28 -15 -28 4 0 11 9 43 20 71 11 28 20 55
20 60 0 18 -39 10 -45 -9 -9 -28 -41 -67 -77 -92 l-30 -22 7 34 c4 19 16 46
26 61 21 28 24 53 10 62 -17 11 -35 -4 -73 -56 -42 -57 -55 -40 -17 21 16 27
18 36 7 42 -7 5 -16 9 -20 9 -6 0 -48 -102 -48 -118 0 -5 -14 -18 -31 -31
l-30 -23 5 33 c2 18 14 45 26 61 21 28 20 68 -1 68 -13 0 -78 -70 -85 -92 -3
-10 -9 -18 -14 -18 -10 0 6 60 20 74 16 16 12 43 -6 43 -9 0 -18 -5 -20 -11z
m388 -339 c-16 -35 -35 -68 -42 -72 -22 -14 -29 17 -12 51 22 41 76 105 80 94
2 -4 -10 -37 -26 -73z"/>
<path d="M3492 2527 c-5 -7 -16 -32 -25 -57 -10 -26 -31 -57 -52 -73 -38 -30
-43 -27 -20 13 43 76 -13 81 -62 6 -18 -28 -42 -59 -53 -70 -18 -19 -20 -19
-20 -3 0 43 72 145 105 150 39 5 34 37 -5 37 -24 0 -42 -12 -80 -52 -28 -29
-50 -56 -50 -61 0 -10 -41 -46 -52 -47 -13 0 -9 24 11 63 19 37 19 38 0 48
-16 8 -22 5 -39 -23 -10 -18 -33 -41 -49 -51 l-30 -18 -11 40 c-6 22 -8 51 -4
65 3 13 1 26 -4 30 -15 9 -43 -18 -45 -44 -1 -13 -11 -33 -22 -45 -11 -12 -37
-42 -58 -68 -46 -57 -67 -61 -67 -13 0 28 6 39 33 57 68 47 85 91 42 111 -19
9 -29 7 -51 -6 -32 -22 -68 -99 -59 -128 5 -13 3 -18 -3 -14 -14 8 -11 -32 4
-58 6 -10 23 -20 37 -21 22 -3 36 7 74 55 27 31 53 65 58 75 9 14 12 12 22
-15 12 -31 11 -33 -32 -73 -62 -56 -59 -96 8 -102 45 -4 79 29 83 82 2 21 3
40 3 43 1 3 16 14 34 24 17 11 29 15 24 11 -8 -9 30 -55 46 -55 6 0 19 8 30
18 11 9 18 13 15 7 -10 -18 11 -55 31 -55 11 0 32 16 47 35 15 20 29 34 31 31
11 -11 -11 -45 -67 -106 -64 -67 -76 -94 -66 -135 6 -25 45 -43 66 -30 17 11
66 116 79 170 9 38 22 59 53 87 40 36 43 37 61 21 18 -17 19 -17 28 0 6 9 21
29 35 45 l24 27 -11 -27 c-25 -58 20 -110 62 -72 11 10 28 31 37 46 21 36 28
35 36 -4 5 -25 2 -34 -11 -42 -26 -14 -73 -63 -73 -75 0 -24 44 -52 75 -47 42
7 65 39 65 91 0 38 3 44 29 55 36 15 76 56 62 64 -5 4 -12 2 -16 -4 -3 -6 -24
-19 -45 -30 l-39 -20 -7 45 c-3 25 -4 51 -1 58 3 8 1 20 -3 28 -13 19 -52 -18
-48 -46 2 -16 -11 -34 -45 -63 -27 -23 -50 -42 -52 -42 -10 0 8 58 25 82 22
30 26 63 8 74 -11 7 -54 -34 -90 -86 l-18 -25 5 29 c2 15 11 39 20 52 18 29
19 30 1 37 -8 3 -19 0 -24 -6z m-586 -76 c-32 -31 -34 -18 -4 29 18 29 23 32
26 16 2 -11 -7 -29 -22 -45z m118 -145 c-8 -31 -41 -53 -57 -37 -7 7 0 19 23
41 37 35 44 34 34 -4z m661 14 c8 -13 -42 -63 -55 -55 -15 9 -12 19 10 43 23
24 35 27 45 12z m-385 -74 c-5 -15 -7 -33 -3 -39 3 -7 3 -9 -2 -5 -4 4 -17
-10 -27 -32 -22 -45 -48 -53 -48 -16 0 23 77 133 86 123 3 -2 0 -16 -6 -31z"/>
<path d="M432 2400 c0 -14 2 -19 5 -12 2 6 2 18 0 25 -3 6 -5 1 -5 -13z"/>
<path d="M440 2236 c0 -8 4 -17 9 -20 5 -4 7 3 4 14 -6 23 -13 26 -13 6z"/>
<path d="M451 2184 c0 -11 3 -14 6 -6 3 7 2 16 -1 19 -3 4 -6 -2 -5 -13z"/>
<path d="M461 2114 c0 -11 3 -14 6 -6 3 7 2 16 -1 19 -3 4 -6 -2 -5 -13z"/>
<path d="M471 2054 c0 -11 3 -14 6 -6 3 7 2 16 -1 19 -3 4 -6 -2 -5 -13z"/>
<path d="M480 2001 c0 -6 4 -13 10 -16 6 -3 7 1 4 9 -7 18 -14 21 -14 7z"/>
<path d="M501 1924 c0 -11 3 -14 6 -6 3 7 2 16 -1 19 -3 4 -6 -2 -5 -13z"/>
<path d="M490 1775 c0 -5 5 -17 10 -25 5 -8 10 -10 10 -5 0 6 -5 17 -10 25 -5
8 -10 11 -10 5z"/>
<path d="M850 1376 c0 -2 8 -10 18 -17 15 -13 16 -12 3 4 -13 16 -21 21 -21
13z"/>
<path d="M4299 1123 c-13 -16 -12 -17 4 -4 9 7 17 15 17 17 0 8 -8 3 -21 -13z"/>
<path d="M4254 1068 l-29 -33 33 29 c30 28 37 36 29 36 -2 0 -16 -15 -33 -32z"/>
<path d="M4194 998 l-29 -33 33 29 c30 28 37 36 29 36 -2 0 -16 -15 -33 -32z"/>
<path d="M4135 940 c-3 -6 1 -7 9 -4 18 7 21 14 7 14 -6 0 -13 -4 -16 -10z"/>
<path d="M4045 848 l-40 -43 45 40 c25 22 47 41 49 43 2 1 0 2 -5 2 -6 0 -28
-19 -49 -42z"/>
<path d="M3954 768 l-19 -23 23 19 c12 11 22 21 22 23 0 8 -8 2 -26 -19z"/>
<path d="M3909 733 c-13 -16 -12 -17 4 -4 16 13 21 21 13 21 -2 0 -10 -8 -17
-17z"/>
<path d="M3850 689 l-35 -30 38 26 c33 24 43 35 34 35 -1 0 -18 -14 -37 -31z"/>
<path d="M3720 605 c-14 -8 -20 -14 -14 -15 5 0 19 7 30 15 24 18 16 19 -16 0z"/>
<path d="M3665 570 c-3 -6 1 -7 9 -4 18 7 21 14 7 14 -6 0 -13 -4 -16 -10z"/>
<path d="M3625 550 c-3 -6 1 -7 9 -4 18 7 21 14 7 14 -6 0 -13 -4 -16 -10z"/>
<path d="M3590 530 c-9 -6 -10 -10 -3 -10 6 0 15 5 18 10 8 12 4 12 -15 0z"/>
<path d="M3504 484 c-18 -14 -18 -14 6 -3 31 14 36 19 24 19 -6 0 -19 -7 -30
-16z"/>
<path d="M3400 440 c-8 -5 -10 -10 -5 -10 6 0 17 5 25 10 8 5 11 10 5 10 -5 0
-17 -5 -25 -10z"/>
<path d="M3276 391 c-4 -5 3 -7 14 -4 23 6 26 13 6 13 -8 0 -17 -4 -20 -9z"/>
<path d="M3198 363 c7 -3 16 -2 19 1 4 3 -2 6 -13 5 -11 0 -14 -3 -6 -6z"/>
</g>
</svg>
